<svg width="59.301" height="73.401" viewBox="0 0 59.301 73.401" xmlns="http://www.w3.org/2000/svg"><g id="svgGroup" stroke-linecap="round" fill-rule="evenodd" font-size="9pt" stroke="#000" stroke-width="0.25mm" fill="#000" style="stroke:#000;stroke-width:0.25mm;fill:#000"><path d="M 34.601 42.7 L 34.601 34.7 L 59.301 34.7 L 59.301 69.7 Q 53.501 71.6 47.601 72.5 Q 41.701 73.4 34.201 73.4 Q 23.101 73.4 15.501 68.95 Q 7.901 64.5 3.951 56.25 Q 0.001 48 0.001 36.7 Q 0.001 25.5 4.401 17.3 Q 8.801 9.1 17.051 4.55 Q 25.301 0 37.001 0 Q 43.001 0 48.351 1.1 Q 53.701 2.2 58.301 4.2 L 54.901 12 Q 51.101 10.3 46.351 9.1 Q 41.601 7.9 36.501 7.9 Q 28.001 7.9 21.901 11.4 Q 15.801 14.9 12.601 21.35 Q 9.401 27.8 9.401 36.7 Q 9.401 45.2 12.151 51.75 Q 14.901 58.3 20.801 61.95 Q 26.701 65.6 36.301 65.6 Q 41.001 65.6 44.301 65.1 Q 47.601 64.6 50.301 63.9 L 50.301 42.7 L 34.601 42.7 Z" vector-effect="non-scaling-stroke"/></g></svg>