<svg width="45.7" height="71.401" viewBox="0 0 45.7 71.401" xmlns="http://www.w3.org/2000/svg"><g id="svgGroup" stroke-linecap="round" fill-rule="evenodd" font-size="9pt" stroke="#000" stroke-width="0.25mm" fill="#000" style="stroke:#000;stroke-width:0.25mm;fill:#000"><path d="M 0 0.001 L 18.9 0.001 Q 32.9 0.001 39.3 5.501 Q 45.7 11.001 45.7 21.001 Q 45.7 25.401 44.25 29.451 Q 42.8 33.501 39.5 36.701 Q 36.2 39.901 30.7 41.751 Q 25.2 43.601 17.2 43.601 L 9 43.601 L 9 71.401 L 0 71.401 L 0 0.001 Z M 18.1 7.701 L 9 7.701 L 9 35.901 L 16.2 35.901 Q 23 35.901 27.5 34.451 Q 32 33.001 34.2 29.801 Q 36.4 26.601 36.4 21.401 Q 36.4 14.501 32 11.101 Q 27.6 7.701 18.1 7.701 Z" vector-effect="non-scaling-stroke"/></g></svg>