<svg width="65.901" height="89.501" viewBox="0 0 65.901 89.501" xmlns="http://www.w3.org/2000/svg"><g id="svgGroup" stroke-linecap="round" fill-rule="evenodd" font-size="9pt" stroke="#000" stroke-width="0.25mm" fill="#000" style="stroke:#000;stroke-width:0.25mm;fill:#000"><path d="M 45.101 71.701 L 62.201 89.501 L 49.301 89.501 L 35.501 73.401 Q 34.901 73.401 34.251 73.451 Q 33.601 73.501 33.001 73.501 Q 24.601 73.501 18.401 70.851 Q 12.201 68.201 8.101 63.351 Q 4.001 58.501 2.001 51.701 Q 0.001 44.901 0.001 36.601 Q 0.001 25.601 3.601 17.401 Q 7.201 9.201 14.551 4.601 Q 21.901 0.001 33.101 0.001 Q 43.801 0.001 51.101 4.551 Q 58.401 9.101 62.151 17.351 Q 65.901 25.601 65.901 36.701 Q 65.901 45.401 63.551 52.501 Q 61.201 59.601 56.601 64.501 Q 52.001 69.401 45.101 71.701 Z M 9.501 36.701 Q 9.501 45.701 12.001 52.201 Q 14.501 58.701 19.751 62.201 Q 25.001 65.701 33.001 65.701 Q 41.101 65.701 46.251 62.201 Q 51.401 58.701 53.901 52.201 Q 56.401 45.701 56.401 36.701 Q 56.401 23.201 50.801 15.551 Q 45.201 7.901 33.101 7.901 Q 25.001 7.901 19.751 11.351 Q 14.501 14.801 12.001 21.251 Q 9.501 27.701 9.501 36.701 Z" vector-effect="non-scaling-stroke"/></g></svg>