<svg width="51" height="71.4" viewBox="0 0 51 71.4" xmlns="http://www.w3.org/2000/svg"><g id="svgGroup" stroke-linecap="round" fill-rule="evenodd" font-size="9pt" stroke="#000" stroke-width="0.25mm" fill="#000" style="stroke:#000;stroke-width:0.25mm;fill:#000"><path d="M 0 0 L 19.7 0 Q 28.6 0 34.35 2.25 Q 40.1 4.5 42.9 9 Q 45.7 13.5 45.7 20.3 Q 45.7 26 43.6 29.8 Q 41.5 33.6 38.25 35.85 Q 35 38.1 31.4 39.4 L 51 71.4 L 40.5 71.4 L 23.2 41.9 L 9 41.9 L 9 71.4 L 0 71.4 L 0 0 Z M 19.2 7.8 L 9 7.8 L 9 34.3 L 19.7 34.3 Q 28.4 34.3 32.4 30.85 Q 36.4 27.4 36.4 20.7 Q 36.4 16 34.55 13.2 Q 32.7 10.4 28.9 9.1 Q 25.1 7.8 19.2 7.8 Z" vector-effect="non-scaling-stroke"/></g></svg>